<?xml version="1.0" standalone="no"?>
<!DOCTYPE svg PUBLIC "-//W3C//DTD SVG 20010904//EN"
 "http://www.w3.org/TR/2001/REC-SVG-20010904/DTD/svg10.dtd">
<svg version="1.0" xmlns="http://www.w3.org/2000/svg"
 width="1024.000000pt" height="1024.000000pt" viewBox="0 0 1024.000000 1024.000000"
 preserveAspectRatio="xMidYMid meet">

<g transform="translate(0.000000,1024.000000) scale(0.100000,-0.100000)"
fill="#000000" stroke="none">
<path d="M6390 8929 c-253 -32 -489 -118 -681 -245 -41 -27 -117 -92 -170
-144 -241 -239 -381 -569 -430 -1014 l-12 -108 -38 133 c-88 312 -221 572
-397 775 -39 45 -92 95 -118 113 -122 80 -294 0 -294 -138 0 -54 27 -93 111
-159 91 -72 199 -193 281 -317 108 -163 225 -427 273 -618 9 -34 18 -70 21
-79 5 -15 -10 -13 -97 18 -56 19 -147 53 -203 76 -332 133 -551 180 -846 179
-396 0 -698 -91 -976 -297 -320 -236 -544 -591 -685 -1088 -23 -77 -48 -149
-57 -158 -11 -11 -62 -26 -137 -41 -67 -13 -142 -36 -170 -50 -106 -54 -181
-167 -191 -289 -4 -48 10 -161 60 -488 36 -234 131 -852 211 -1375 80 -522
153 -974 162 -1004 44 -142 157 -246 297 -272 43 -8 90 -4 237 16 101 14 202
27 225 30 l40 6 55 -77 c309 -439 678 -744 1053 -869 151 -51 267 -68 416 -62
150 6 227 22 425 87 263 86 372 90 557 24 257 -92 381 -116 578 -116 153 0
266 20 415 72 363 129 742 446 1021 853 52 75 63 86 89 87 16 0 123 -14 238
-30 232 -34 273 -33 366 15 65 33 112 74 150 133 59 93 47 28 261 1417 49 319
121 789 160 1045 55 358 70 479 66 524 -12 117 -88 230 -190 283 -26 13 -109
38 -184 54 -98 21 -139 34 -146 46 -6 10 -29 83 -52 163 -49 168 -85 263 -154
402 -238 474 -668 817 -1154 918 -131 28 -313 42 -436 35 l-105 -6 70 38 c260
142 459 353 599 638 109 221 174 456 192 700 8 95 -2 120 -51 141 -72 30 -489
44 -655 23z m420 -263 c0 -45 -36 -206 -66 -296 -132 -394 -412 -677 -797
-805 -110 -36 -282 -69 -336 -63 l-34 3 111 116 c124 129 255 246 409 363 111
84 133 117 110 165 -23 48 -55 49 -147 2 -199 -101 -443 -294 -601 -473 l-71
-81 6 44 c59 382 208 641 471 819 221 149 467 215 813 219 106 1 132 -2 132
-13z m-1252 -1457 c-25 -14 -209 -87 -240 -94 l-27 -7 16 51 17 50 95 4 c53 1
110 4 126 5 24 1 27 -1 13 -9z m-1434 -103 c157 -34 254 -64 471 -146 214 -81
316 -109 439 -119 185 -15 332 12 581 109 354 136 548 180 806 180 235 0 423
-42 621 -140 139 -69 239 -141 353 -255 150 -150 266 -324 344 -517 39 -95 94
-278 87 -285 -2 -3 -105 12 -227 31 -404 64 -827 107 -1334 137 -295 17 -1234
23 -1605 10 -774 -27 -1267 -70 -2028 -177 -140 -19 -256 -33 -259 -31 -7 8
33 147 74 256 189 507 519 829 963 940 141 35 196 40 400 36 163 -3 214 -7
314 -29z m1836 -1256 c775 -33 1332 -93 1950 -210 426 -81 422 -80 456 -116
17 -18 33 -46 36 -62 4 -30 -24 -230 -181 -1257 -55 -357 -128 -839 -162
-1070 -38 -259 -68 -436 -79 -462 -11 -25 -32 -51 -52 -63 -41 -26 -63 -25
-413 23 -358 49 -914 99 -1435 128 -311 17 -1290 23 -1665 10 -614 -21 -1200
-68 -1700 -137 -387 -52 -362 -51 -403 -29 -20 11 -44 34 -54 52 -14 23 -49
231 -133 790 -63 417 -155 1026 -205 1353 -49 327 -90 614 -90 638 0 36 6 50
32 76 31 31 43 34 213 64 889 157 1792 253 2565 275 268 8 1114 6 1320 -3z
m105 -3350 c318 -16 929 -63 993 -76 22 -4 21 -7 -25 -67 -219 -289 -438 -483
-678 -602 -146 -72 -237 -100 -372 -114 -164 -17 -306 7 -567 94 -151 51 -227
65 -348 65 -116 0 -208 -19 -406 -84 -203 -66 -288 -81 -430 -73 -338 17 -697
250 -1039 673 l-82 102 52 6 c276 33 870 71 1342 86 308 10 1288 4 1560 -10z"/>
<path d="M5490 5549 c-245 -48 -354 -330 -195 -507 49 -55 135 -104 263 -151
153 -57 192 -86 192 -144 0 -39 -24 -81 -55 -95 -33 -15 -120 -14 -160 1 -47
18 -69 38 -104 90 -23 33 -39 47 -54 46 -36 -1 -169 -53 -180 -70 -28 -45 36
-160 122 -221 87 -61 166 -83 301 -83 85 0 128 5 166 18 151 52 235 167 237
322 3 163 -98 262 -362 356 -144 50 -184 87 -167 153 11 46 60 68 143 64 81
-4 112 -20 152 -81 30 -45 47 -46 151 -9 70 25 75 29 78 59 6 64 -70 163 -160
209 -95 48 -249 66 -368 43z"/>
<path d="M4643 5540 c-194 -4 -235 -8 -248 -21 -15 -14 -15 -61 -1 -534 14
-467 17 -520 33 -538 17 -19 30 -19 320 -15 228 3 305 7 317 17 20 17 23 190
4 209 -9 9 -69 12 -210 12 l-198 0 0 94 c0 76 3 95 16 100 9 3 78 6 153 6 175
0 176 1 165 122 -3 45 -11 89 -16 96 -8 9 -54 12 -169 12 l-159 0 0 105 0 105
186 0 c109 0 193 4 205 10 17 10 19 22 19 108 0 63 -4 102 -12 110 -8 8 -41
11 -92 10 -45 -1 -185 -5 -313 -8z"/>
<path d="M6110 5501 c-5 -11 -10 -60 -10 -110 0 -76 3 -92 18 -99 9 -5 70 -13
135 -17 l117 -7 0 -36 c0 -21 -9 -192 -20 -382 -25 -428 -25 -427 -2 -438 24
-13 206 -22 223 -12 10 7 19 103 39 424 14 229 29 418 32 421 3 4 59 1 124 -5
151 -14 149 -15 149 118 0 93 -1 97 -25 108 -22 10 -616 54 -727 54 -32 0 -45
-5 -53 -19z"/>
<path d="M3600 5474 c-196 -17 -207 -19 -219 -42 -7 -13 1 -177 24 -508 19
-269 35 -496 35 -505 0 -9 8 -27 18 -39 l18 -22 236 17 c314 21 366 35 450
122 59 60 83 124 83 218 0 67 -5 88 -27 131 -29 56 -75 99 -126 121 l-33 14
30 25 c110 93 108 304 -4 403 -90 79 -184 92 -485 65z m291 -243 c40 -41 41
-101 1 -141 -24 -23 -40 -29 -98 -34 -38 -4 -85 -9 -105 -11 l-36 -5 -7 62
c-11 107 -8 146 12 151 9 3 59 5 110 6 91 1 94 0 123 -28z m46 -407 c35 -22
56 -71 50 -116 -10 -75 -48 -96 -196 -106 l-110 -7 -6 75 c-3 41 -7 95 -8 120
l-2 45 80 6 c99 7 163 2 192 -17z"/>
<path d="M5360 4184 c-113 -30 -214 -113 -265 -218 -39 -80 -56 -162 -62 -286
-11 -245 52 -421 185 -512 177 -122 455 -107 605 31 52 48 108 149 133 241 26
93 26 341 0 425 -43 142 -115 232 -229 286 -108 50 -254 63 -367 33z m205
-215 c95 -26 142 -99 155 -237 13 -144 -11 -283 -61 -354 -49 -69 -184 -91
-265 -43 -54 32 -81 76 -99 162 -37 175 7 399 88 445 66 38 116 45 182 27z"/>
<path d="M4587 4180 c-206 -6 -251 -10 -264 -23 -14 -14 -15 -65 -4 -518 7
-277 17 -511 22 -521 8 -15 24 -18 108 -18 78 0 101 3 112 16 10 12 12 59 10
198 l-3 183 154 7 c84 4 157 11 161 15 4 4 6 52 5 107 l-3 99 -162 3 -163 2 0
109 0 108 183 8 c100 4 188 12 195 17 8 7 12 40 12 99 0 79 -2 89 -22 103 -12
9 -38 15 -58 14 -19 -1 -147 -4 -283 -8z"/>
<path d="M3745 4144 c-199 -12 -232 -17 -248 -33 -20 -19 -17 -92 34 -851 12
-179 13 -187 40 -195 17 -6 344 6 531 19 69 5 78 16 78 102 0 77 -10 118 -32
126 -7 3 -93 1 -191 -5 -98 -5 -179 -8 -182 -6 -2 2 -7 47 -10 100 l-8 96 149
7 c81 4 154 12 161 18 21 17 17 160 -5 188 -17 21 -20 22 -164 13 l-146 -8 -6
35 c-3 19 -6 65 -6 101 l0 67 176 7 c157 7 179 10 196 27 15 15 19 28 14 50
-3 17 -6 52 -6 79 0 30 -6 53 -16 63 -18 19 -39 19 -359 0z"/>
<path d="M6153 4149 c-7 -9 -19 -162 -32 -434 -11 -231 -23 -461 -27 -511 -4
-69 -2 -93 8 -101 15 -12 201 -24 217 -13 7 4 16 76 22 176 6 93 12 169 13
170 0 0 21 -1 46 -4 l45 -4 74 -169 c41 -93 82 -176 92 -185 12 -11 48 -17
128 -21 98 -5 111 -4 117 11 4 10 -25 86 -75 197 -44 99 -81 184 -81 189 0 5
10 12 21 15 34 11 108 85 131 130 106 207 27 446 -172 518 -66 24 -154 35
-345 43 -139 5 -172 4 -182 -7z m414 -234 c45 -19 73 -69 73 -128 0 -117 -70
-166 -215 -151 l-65 7 5 96 c3 53 8 119 11 146 l5 50 77 -3 c42 -2 92 -10 109
-17z"/>
<path d="M7097 4090 c-19 -16 -24 -46 -54 -326 -79 -743 -75 -696 -56 -716 15
-14 66 -22 273 -43 295 -29 324 -30 339 -11 17 20 30 174 16 193 -9 12 -57 20
-196 35 -101 11 -184 20 -185 21 0 1 4 46 9 100 l10 99 41 -6 c23 -3 92 -11
155 -17 137 -14 136 -15 146 98 6 61 5 78 -8 90 -11 11 -60 20 -162 31 l-147
15 6 56 c15 130 18 141 35 141 9 0 70 -7 136 -15 163 -20 222 -20 233 3 5 9
13 53 16 98 5 61 4 83 -6 91 -11 9 -140 27 -551 76 -17 2 -38 -3 -50 -13z"/>
<path d="M2746 4060 c-123 -15 -164 -23 -177 -37 -18 -17 -17 -36 31 -508 28
-269 52 -500 55 -512 10 -43 30 -44 257 -18 235 27 291 40 359 84 154 97 185
321 62 452 -25 27 -61 54 -79 61 -39 14 -41 19 -15 35 37 23 73 100 78 166 10
117 -38 207 -137 262 -51 27 -64 30 -165 31 -60 2 -182 -6 -269 -16z m298
-213 c29 -19 44 -76 30 -115 -16 -44 -55 -63 -148 -75 -47 -5 -89 -8 -91 -5
-8 8 -27 189 -21 195 9 9 111 22 158 19 26 -2 58 -10 72 -19z m78 -426 c30
-26 33 -35 33 -84 0 -40 -5 -61 -19 -76 -24 -26 -97 -47 -192 -56 l-71 -7 -6
44 c-4 23 -9 78 -13 120 l-6 77 38 4 c22 2 76 4 121 5 78 2 84 0 115 -27z"/>
</g>
</svg>
